<?xml version="1.0" standalone="no"?>
<!DOCTYPE svg PUBLIC "-//W3C//DTD SVG 1.1//EN" "http://www.w3.org/Graphics/SVG/1.1/DTD/svg11.dtd" >
<svg xmlns="http://www.w3.org/2000/svg">
<metadata>Generated by IcoMoon</metadata>
<defs>
<font id="icomoon" horiz-adv-x="1024">
<font-face units-per-em="1024" ascent="960" descent="-64" />
<missing-glyph horiz-adv-x="1024" />
<glyph unicode="&#x20;" horiz-adv-x="512" d="" />
<glyph unicode="&#xe900;" glyph-name="check-circle" d="M664.812 791.206c-151.89 67.677-330.2 27.39-438.237-99.013s-120.065-308.813-29.561-448.307c90.504-139.494 261.981-202.844 421.436-155.699 159.462 47.145 268.918 193.562 269.010 359.843v39.224c0 28.277 22.922 51.2 51.2 51.2s51.2-22.923 51.2-51.2v-39.254c-0.118-211.631-139.428-398.009-342.374-458.010-202.946-60.006-421.189 20.623-536.376 198.159-115.187 177.541-99.878 409.698 37.624 570.575s364.444 212.151 557.755 126.017c25.825-11.509 37.437-41.777 25.928-67.606s-41.779-37.438-67.604-25.929zM974.853 825.555c20.004-19.985 20.019-52.403 0.036-72.408l-426.665-427.095c-9.6-9.61-22.625-15.007-36.209-15.012-13.586-0.005-26.614 5.391-36.219 14.996l-128 127.999c-19.995 19.995-19.995 52.413 0 72.408s52.413 19.995 72.408 0l91.778-91.776 390.464 390.851c19.983 20.005 52.403 20.021 72.407 0.036z" />
<glyph unicode="&#xe901;" glyph-name="danger" d="M1010.806 147.212l-420.028 696.584c-16.548 27.442-46.734 44.49-78.78 44.49s-62.231-17.048-78.781-44.492l-420.026-696.582c-17.102-28.364-17.608-63.9-1.322-92.74 16.29-28.84 46.982-46.756 80.102-46.756h840.056c33.12 0 63.814 17.916 80.104 46.758 16.287 28.842 15.781 64.378-1.324 92.737zM954.077 87.256c-4.484-7.939-12.933-12.873-22.052-12.873h-840.056c-9.118 0-17.568 4.933-22.050 12.87-4.484 7.94-4.344 17.724 0.362 25.53l420.030 696.585c4.557 7.553 12.867 12.247 21.688 12.247s17.13-4.694 21.686-12.247l420.026-696.585c4.71-7.808 4.85-17.59 0.366-25.527zM512.308 613.99c-25.361 0-45.152-13.608-45.152-37.732 0-73.604 8.658-179.372 8.658-252.978 0.001-19.174 16.704-27.214 36.495-27.214 14.844 0 35.875 8.040 35.875 27.214 0 73.604 8.658 179.372 8.658 252.978 0 24.122-20.41 37.732-44.534 37.732zM512.929 253.388c-27.214 0-47.628-21.649-47.628-47.628 0-25.361 20.412-47.629 47.628-47.629 25.361 0 47.011 22.268 47.011 47.629 0 25.979-21.652 47.628-47.011 47.628z" />
<glyph unicode="&#xe902;" glyph-name="calendar" horiz-adv-x="973" d="M847.401 858.4h-87.398v45.6c0 16.788-13.614 30.4-30.403 30.4s-30.403-13.612-30.403-30.4v-45.6h-425.597v45.6c0 16.788-13.609 30.4-30.4 30.4s-30.4-13.612-30.4-30.4v-45.6h-87.4c-69.147 0-125.4-56.253-125.4-125.4v-646.001c0-69.146 56.253-125.399 125.4-125.399h722.001c69.146 0 125.399 56.253 125.399 125.399v646.001c0 69.147-56.253 125.4-125.399 125.4zM125.4 797.6h87.4v-30.399c0-16.788 13.609-30.401 30.4-30.401s30.4 13.612 30.4 30.401v30.399h425.597v-30.399c0-16.788 13.614-30.401 30.403-30.401s30.403 13.612 30.403 30.401v30.399h87.398c35.62 0 64.599-28.979 64.599-64.6v-72.2h-851.2v72.2c0 35.621 28.979 64.6 64.6 64.6zM847.401 22.4h-722.001c-35.621 0-64.6 28.979-64.6 64.599v513.001h851.2v-513.001c0-35.62-28.979-64.599-64.599-64.599z" />
<glyph unicode="&#xe903;" glyph-name="books" horiz-adv-x="1040" d="M261.76-12.32h-182.72c-12.985 0-25.438 5.158-34.62 14.341-9.182 9.181-14.34 21.635-14.34 34.619v822.72c0 12.985 5.158 25.438 14.34 34.62s21.635 14.34 34.62 14.34h182.72c12.957-0.042 25.37-5.219 34.517-14.396s14.283-21.606 14.283-34.564v-822.72c0-12.957-5.136-25.386-14.283-34.563s-21.56-14.354-34.517-14.397v0zM79.040 876.32c-4.498 0-8.812-1.787-11.993-4.968s-4.967-7.494-4.967-11.992v-822.72c0-4.498 1.787-8.811 4.967-11.992s7.495-4.968 11.993-4.968h182.72c4.47 0.042 8.744 1.848 11.89 5.024s4.91 7.466 4.91 11.936v822.72c0 4.47-1.765 8.76-4.91 11.936s-7.419 4.981-11.89 5.024h-182.72zM221.6 753.598h-102.56c-4.243 0-8.313 1.685-11.314 4.685-3.001 3.002-4.686 7.070-4.686 11.315 0 4.243 1.686 8.312 4.686 11.314 3 3 7.070 4.686 11.314 4.686h102.56c4.243 0 8.314-1.686 11.314-4.686 3.002-3.002 4.686-7.070 4.686-11.314s-1.685-8.314-4.686-11.315c-3-3-7.070-4.685-11.314-4.685zM221.6 663.52h-102.56c-4.243 0-8.313 1.685-11.314 4.686s-4.686 7.070-4.686 11.314 1.686 8.312 4.686 11.314c3 3 7.070 4.686 11.314 4.686h102.56c4.243 0 8.314-1.686 11.314-4.686 3.002-3.002 4.686-7.070 4.686-11.314s-1.685-8.314-4.686-11.314c-3-3.002-7.070-4.686-11.314-4.686zM221.6 200.48h-102.56c-4.243 0-8.313 1.686-11.314 4.686-3.001 3.002-4.686 7.070-4.686 11.314s1.686 8.314 4.686 11.314c3 3.002 7.070 4.686 11.314 4.686h102.56c4.243 0 8.314-1.685 11.314-4.686 3.002-3 4.686-7.070 4.686-11.314s-1.685-8.312-4.686-11.314c-3-3-7.070-4.686-11.314-4.686zM221.6 110.398h-102.56c-4.243 0-8.313 1.686-11.314 4.686s-4.686 7.070-4.686 11.314c0 4.243 1.686 8.314 4.686 11.314s7.070 4.686 11.314 4.686h102.56c4.243 0 8.314-1.686 11.314-4.686 3.002-3 4.686-7.070 4.686-11.314s-1.685-8.314-4.686-11.314c-3-3-7.070-4.686-11.314-4.686zM510.080-12.32h-182.080c-12.986 0-25.438 5.158-34.619 14.341-9.182 9.181-14.341 21.635-14.341 34.619v822.72c0 12.985 5.158 25.438 14.341 34.62 9.181 9.182 21.634 14.34 34.619 14.34h182.080c12.986 0 25.438-5.158 34.621-14.34 9.181-9.182 14.339-21.635 14.339-34.62v-822.72c0-12.984-5.158-25.438-14.339-34.619s-21.635-14.341-34.621-14.341v0zM328 876.32c-4.498 0-8.811-1.787-11.992-4.968s-4.968-7.494-4.968-11.992v-822.72c0-4.498 1.787-8.811 4.968-11.992s7.494-4.968 11.992-4.968h182.080c4.498 0 8.811 1.787 11.992 4.968s4.968 7.494 4.968 11.992v822.72c0 4.498-1.787 8.812-4.968 11.992s-7.494 4.968-11.992 4.968h-182.080zM470.080 753.598h-102.56c-4.243 0-8.314 1.685-11.314 4.685-3 3.002-4.686 7.070-4.686 11.315 0 4.243 1.686 8.312 4.686 11.314 3 3 7.070 4.686 11.314 4.686h102.56c4.243 0 8.314-1.686 11.314-4.686 3-3.002 4.686-7.070 4.686-11.314s-1.686-8.314-4.686-11.315c-3-3-7.070-4.685-11.314-4.685zM470.080 663.52h-102.56c-4.243 0-8.314 1.685-11.314 4.686s-4.686 7.070-4.686 11.314 1.686 8.312 4.686 11.314c3 3 7.070 4.686 11.314 4.686h102.56c4.243 0 8.314-1.686 11.314-4.686 3-3.002 4.686-7.070 4.686-11.314s-1.686-8.314-4.686-11.314c-3-3.002-7.070-4.686-11.314-4.686zM470.080 200.48h-102.56c-4.243 0-8.314 1.686-11.314 4.686-3 3.002-4.686 7.070-4.686 11.314s1.686 8.314 4.686 11.314c3 3.002 7.070 4.686 11.314 4.686h102.56c4.243 0 8.314-1.685 11.314-4.686 3-3 4.686-7.070 4.686-11.314s-1.686-8.312-4.686-11.314c-3-3-7.070-4.686-11.314-4.686zM470.080 110.398h-102.56c-4.243 0-8.314 1.686-11.314 4.686s-4.686 7.070-4.686 11.314c0 4.243 1.686 8.314 4.686 11.314s7.070 4.686 11.314 4.686h102.56c4.243 0 8.314-1.686 11.314-4.686s4.686-7.070 4.686-11.314c0-4.243-1.686-8.314-4.686-11.314s-7.070-4.686-11.314-4.686zM784.8-21.92c-10.89-0.101-21.506 3.408-30.189 9.979-8.685 6.571-14.947 15.834-17.811 26.341l-209.12 782.078c-0.181 1.381-0.181 2.779 0 4.161v37.28c-0.013 2.68 0.646 5.321 1.92 7.68 3.155 5.74 7.451 10.774 12.624 14.791s11.114 6.934 17.456 8.569l176 48c12.6 3.162 25.939 1.221 37.115-5.401s19.286-17.389 22.565-29.959l212.96-794.721c1.666-6.208 2.088-12.685 1.243-19.058s-2.941-12.517-6.166-18.077c-3.227-5.562-7.52-10.429-12.634-14.326-5.114-3.896-10.946-6.742-17.163-8.379l-176-48c-4.206-0.88-8.509-1.202-12.8-0.958v0zM559.2 802.719l208.96-780.001c0.576-2.154 1.571-4.174 2.928-5.944s3.051-3.256 4.982-4.37c1.933-1.115 4.066-1.838 6.277-2.126 2.213-0.29 4.459-0.139 6.613 0.44l176 48c2.149 0.558 4.166 1.536 5.934 2.878 1.77 1.341 3.254 3.021 4.37 4.939 1.117 1.92 1.84 4.042 2.131 6.242 0.291 2.202 0.144 4.438-0.435 6.581l-212.48 793.921c-1.165 4.282-3.962 7.936-7.79 10.18s-8.384 2.897-12.69 1.82l-176-48c-3.142-0.74-5.986-2.413-8.16-4.8v-29.76h-0.64zM633.6 729.28c-4.243-0.552-8.533 0.605-11.923 3.216s-5.605 6.461-6.157 10.704 0.605 8.533 3.216 11.923c2.61 3.39 6.461 5.605 10.704 6.157l98.56 26.080c2.053 0.629 4.211 0.838 6.347 0.616s4.205-0.872 6.085-1.912c1.878-1.038 3.53-2.445 4.854-4.136 1.323-1.69 2.294-3.63 2.853-5.702 0.558-2.074 0.694-4.238 0.398-6.365s-1.016-4.173-2.12-6.016c-1.102-1.842-2.565-3.443-4.299-4.709s-3.707-2.17-5.798-2.656l-99.040-26.56c-1.197-0.357-2.432-0.571-3.68-0.64v0zM656.8 642.237c-4.243-0.55-8.533 0.605-11.923 3.216s-5.605 6.461-6.157 10.704c-0.552 4.245 0.605 8.533 3.214 11.923 2.611 3.39 6.462 5.606 10.706 6.157l99.040 26.56c2.059 0.547 4.205 0.682 6.317 0.398s4.147-0.979 5.989-2.050c1.842-1.069 3.456-2.491 4.749-4.184s2.238-3.626 2.786-5.685c0.546-2.059 0.682-4.205 0.398-6.317s-0.979-4.146-2.050-5.989c-1.070-1.842-2.491-3.456-4.186-4.749-1.693-1.293-3.624-2.238-5.683-2.786l-99.040-26.56c-1.352-0.395-2.752-0.61-4.16-0.64v0zM776 195.198c-4.243-0.552-8.533 0.605-11.923 3.214-3.39 2.611-5.605 6.461-6.157 10.706-0.552 4.243 0.605 8.531 3.216 11.922s6.461 5.606 10.704 6.158l100.16 25.92c2.053 0.629 4.211 0.838 6.347 0.616s4.205-0.874 6.085-1.912c1.878-1.038 3.53-2.445 4.854-4.136 1.323-1.691 2.294-3.63 2.853-5.704s0.694-4.238 0.398-6.365c-0.296-2.126-1.016-4.173-2.12-6.014-1.102-1.843-2.565-3.445-4.299-4.71s-3.707-2.168-5.798-2.654l-99.52-26.56c-1.566-0.403-3.186-0.565-4.8-0.48v0zM800 108.16c-2.101-0.274-4.235-0.131-6.282 0.421-2.045 0.552-3.963 1.501-5.642 2.794-3.39 2.611-5.605 6.461-6.157 10.706-0.552 4.243 0.605 8.531 3.216 11.922s6.461 5.606 10.704 6.158l99.040 26.558c2.053 0.63 4.211 0.84 6.347 0.618s4.205-0.874 6.085-1.912c1.878-1.038 3.53-2.446 4.854-4.136 1.323-1.691 2.294-3.63 2.853-5.704s0.694-4.238 0.398-6.365c-0.296-2.126-1.016-4.173-2.12-6.014-1.102-1.843-2.565-3.445-4.299-4.71s-3.707-2.168-5.798-2.654l-99.040-26.56c-1.33-0.56-2.73-0.936-4.16-1.12v0z" />
<glyph unicode="&#xe904;" glyph-name="date" horiz-adv-x="1040" d="M898.709 846.221h-65.819v56.889c0 7.544-2.997 14.779-8.331 20.113s-12.57 8.331-20.114 8.331c-7.544 0-14.779-2.997-20.114-8.331s-8.331-12.569-8.331-20.113v-56.889h-227.555v56.889c0 7.544-2.997 14.779-8.331 20.113s-12.57 8.331-20.114 8.331c-7.544 0-14.779-2.997-20.114-8.331s-8.331-12.569-8.331-20.113v-56.889h-227.555v56.889c0 7.544-2.997 14.779-8.331 20.113s-12.57 8.331-20.114 8.331c-7.544 0-14.779-2.997-20.114-8.331s-8.331-12.569-8.331-20.113v-56.889h-65.82c-27.8-0.023-54.455-11.076-74.112-30.734s-30.711-46.313-30.734-74.113v-672.085c0.023-27.8 11.076-54.454 30.734-74.112s46.312-30.712 74.112-30.734h606.265c7.544 0.002 14.778 3 20.11 8.334l227.555 227.555c5.336 5.334 8.333 12.568 8.334 20.11v520.931c-0.022 27.8-11.075 54.456-30.733 74.113s-46.314 30.711-74.114 30.734v0zM141.291 789.333h65.82v-56.89c0-7.544 2.997-14.779 8.331-20.114s12.57-8.331 20.114-8.331c7.544 0 14.779 2.997 20.114 8.331s8.331 12.57 8.331 20.114v56.89h227.555v-56.89c0-7.544 2.997-14.779 8.331-20.114s12.57-8.331 20.114-8.331c7.544 0 14.779 2.997 20.114 8.331s8.331 12.57 8.331 20.114v56.89h227.555v-56.89c0-7.544 2.997-14.779 8.331-20.114s12.57-8.331 20.114-8.331c7.544 0 14.779 2.997 20.114 8.331s8.331 12.57 8.331 20.114v56.89h65.819c12.717-0.008 24.91-5.062 33.902-14.054 8.994-8.992 14.048-21.187 14.056-33.904v-94.264h-853.334v94.264c0.008 12.717 5.063 24.912 14.055 33.904s21.186 14.046 33.903 14.054v0zM93.333 69.29v520.931h853.334v-341.333h-199.112c-7.544 0-14.779-2.997-20.114-8.331s-8.331-12.57-8.331-20.114v-199.11h-577.82c-12.717 0.008-24.91 5.062-33.903 14.054s-14.047 21.186-14.055 33.902v0zM906.446 191.998l-130.446-130.445v130.445h130.446zM725 437.362c5.181 5.365 8.048 12.549 7.982 20.008-0.064 7.458-3.056 14.592-8.33 19.866s-12.408 8.266-19.866 8.33c-7.459 0.066-14.643-2.802-20.008-7.982l-226.418-226.39-103.141 103.141c-5.365 5.181-12.549 8.048-20.008 7.982-7.458-0.064-14.592-3.056-19.866-8.33s-8.266-12.408-8.33-19.866c-0.066-7.459 2.802-14.643 7.984-20.008l123.25-123.25c2.642-2.645 5.778-4.742 9.232-6.174s7.154-2.168 10.893-2.168c3.738 0 7.438 0.736 10.891 2.168s6.59 3.53 9.232 6.174l246.501 246.499z" />
<glyph unicode="&#xe905;" glyph-name="download" d="M563.2 908.8c0 28.277-22.922 51.2-51.2 51.2s-51.2-22.923-51.2-51.2v-490.793l-168.596 168.597c-19.995 19.995-52.413 19.995-72.408 0s-19.995-52.413 0-72.408l255.964-255.964c0.123-0.123 0.248-0.246 0.372-0.369 4.831-4.746 10.368-8.335 16.27-10.778 5.992-2.488 12.558-3.866 19.445-3.886 0.051 0 0.102 0 0.154 0s0.102 0 0.154 0c14.024 0.041 26.716 5.719 35.942 14.889zM548.229 258.222l255.974 255.974c19.994 19.995 19.994 52.413 0 72.408s-52.413 19.995-72.407 0l-168.596-168.597v490.793zM51.2 345.6c28.277 0 51.2-22.922 51.2-51.2v-204.8c0-28.278 22.923-51.2 51.2-51.2h716.8c28.278 0 51.2 22.922 51.2 51.2v204.8c0 28.278 22.922 51.2 51.2 51.2s51.2-22.922 51.2-51.2v-204.8c0-84.833-68.767-153.6-153.6-153.6h-716.8c-84.831 0-153.6 68.767-153.6 153.6v204.8c0 28.278 22.923 51.2 51.2 51.2z" />
<glyph unicode="&#xe906;" glyph-name="external-link" d="M146.286 704c-80.792 0-146.286-65.494-146.286-146.286v-438.857c0-80.794 65.494-146.286 146.286-146.286h438.857c80.791 0 146.286 65.492 146.286 146.286v73.143h-146.286v-73.143h-438.857v438.857h146.286v146.286h-146.286zM886.981 949.639c26.565 0 50.52-11.216 67.372-29.171 17.291-16.789 28.036-40.284 28.036-66.288v-409.219c0-51.027-41.37-92.391-92.394-92.391s-92.387 41.365-92.387 92.391v189.326l-287.866-287.862c-36.133-36.134-94.717-36.134-130.851 0s-36.133 94.717 0 130.851l287.581 287.58h-188.711c-51.026 0-92.39 41.364-92.391 92.391s41.365 92.391 92.391 92.391h409.221z" />
<glyph unicode="&#xe907;" glyph-name="plus" horiz-adv-x="1088" d="M13.504 447.999c0 44.648 36.194 80.842 80.842 80.842h862.316c44.648 0 80.842-36.194 80.842-80.842s-36.194-80.842-80.842-80.842h-862.316c-44.648 0-80.842 36.194-80.842 80.842zM498.557 960h-0.001c44.648 0 80.842-36.194 80.842-80.842v-862.316c0-44.648-36.194-80.842-80.842-80.842h0.001c-44.648 0-80.842 36.194-80.842 80.842v862.316c0 44.648 36.194 80.842 80.842 80.842z" />
<glyph unicode="&#xe908;" glyph-name="shield-inset" horiz-adv-x="964" d="M902.987-4.15h-423.601c-140.745 0-280.846 1.048-421.431-0.964-37.837-0.398-65.070 17.432-54.707 66.277 21.047 98.491 73.023 169.183 166.692 207.902 45.067 18.721 90.054 37.677 135.443 55.513 36.15 14.222 44.987 43.943 20.887 76.077-31.253 39.832-54.694 85.215-69.087 133.755-20.021 67.22-22.373 138.466-6.828 206.859 28.519 118.412 134.399 188.303 256.024 177.377 55.463-4.919 107.353-29.466 146.331-69.227s62.494-92.125 66.313-147.675c6.59-98.971-7.554-191.757-64.265-275.143-6.993-10.604-15.986-20.164-23.058-30.768-18.233-27.555-7.873-58.24 21.932-70.612 57.681-23.781 115.76-47.158 171.996-73.909 88.365-42.092 120.501-121.627 136.565-210.793 0.94-4.596 0.946-9.336 0.018-13.932-0.922-4.596-2.765-8.963-5.409-12.836s-6.042-7.18-9.987-9.716c-3.945-2.536-8.361-4.253-12.981-5.048-10.107-2.337-20.474-3.391-30.846-3.138z" />
<glyph unicode="&#xe909;" glyph-name="arrow-right" horiz-adv-x="1088" d="M1048.32 537.6c22.168-21.837 35.902-52.182 35.902-85.735 0-1.359-0.023-2.713-0.067-4.061l0.005 0.196c0.040-1.152 0.062-2.506 0.062-3.865 0-33.553-13.734-63.898-35.887-85.721l-384.015-384.015c-22.357-22.357-53.244-36.186-87.36-36.186-68.232 0-123.546 55.313-123.546 123.546 0 34.116 13.828 65.003 36.186 87.36l178.56 178.56h-544.64c-2.659-0.204-5.759-0.32-8.885-0.32-68.218 0-123.52 55.302-123.52 123.52s55.302 123.52 123.52 123.52c3.127 0 6.227-0.116 9.295-0.344l-0.41 0.024h542.080l-177.92 175.36c-22.357 22.357-36.186 53.244-36.186 87.36 0 68.232 55.313 123.546 123.546 123.546 34.116 0 65.003-13.828 87.36-36.186v0z" />
<glyph unicode="&#xe90a;" glyph-name="eyeball" d="M151.922 448c2.622 3.703 5.542 7.73 8.754 12.032 17.71 23.717 44.008 55.349 78.176 86.868 68.818 63.486 165.508 122.966 285.948 122.966 120.443 0 217.134-59.48 285.952-122.966 34.166-31.52 60.467-63.152 78.177-86.868 3.21-4.302 6.129-8.329 8.755-12.032-2.627-3.703-5.545-7.731-8.755-12.033-17.71-23.716-44.012-55.349-78.177-86.869-68.818-63.484-165.509-122.963-285.952-122.963-120.44 0-217.13 59.479-285.948 122.963-34.167 31.52-60.466 63.153-78.176 86.869-3.212 4.302-6.132 8.329-8.754 12.033zM958.935 448c44.324 25.626 44.314 25.643 44.303 25.661l-0.082 0.146-0.164 0.282-0.507 0.856c-0.415 0.699-0.988 1.653-1.715 2.843-1.459 2.38-3.538 5.712-6.236 9.86-5.391 8.29-13.271 19.873-23.557 33.653-20.526 27.483-50.959 64.118-90.793 100.865-79.181 73.047-199.557 150.101-355.384 150.101-155.823 0-276.199-77.054-355.381-150.101-39.833-36.747-70.267-73.381-90.791-100.865-10.29-13.779-18.165-25.363-23.557-33.653-2.698-4.148-4.779-7.48-6.236-9.86-0.728-1.19-1.301-2.144-1.717-2.843l-0.506-0.856-0.165-0.282-0.060-0.103c-0.011-0.018-0.045-0.078 44.28-25.704l-44.325 25.626c-9.166-15.855-9.166-35.397 0-51.252l44.325 25.626c-44.325-25.626-44.336-25.608-44.325-25.626l0.105-0.182 0.165-0.282 0.506-0.856c0.416-0.699 0.988-1.653 1.717-2.843 1.456-2.38 3.538-5.712 6.236-9.86 5.391-8.29 13.267-19.873 23.557-33.653 20.524-27.483 50.958-64.118 90.791-100.866 79.182-73.047 199.558-150.098 355.381-150.098 155.827 0 276.204 77.051 355.384 150.098 39.834 36.748 70.267 73.382 90.793 100.866 10.286 13.779 18.166 25.363 23.557 33.653 2.698 4.148 4.777 7.48 6.236 9.86 0.727 1.19 1.3 2.144 1.715 2.843l0.507 0.856 0.164 0.282 0.061 0.103c0.010 0.018 0.041 0.078-44.283 25.704zM958.935 448l44.303 25.661c9.17-15.855 9.19-35.433 0.020-51.288l-44.324 25.626zM134.947 422.292c-0.007-0.011-0.012-0.021 0 0zM134.956 473.693c-0.012 0.020-0.007 0.011 0 0zM524.8 499.2c-44.344 0-67.2-29.648-67.2-51.2s22.856-51.2 67.2-51.2c44.344 0 67.2 29.648 67.2 51.2s-22.856 51.2-67.2 51.2zM355.2 448c0 91.556 83.163 153.6 169.6 153.6s169.6-62.044 169.6-153.6-83.164-153.6-169.6-153.6c-86.437 0-169.6 62.044-169.6 153.6z" />
<glyph unicode="&#xe90b;" glyph-name="scroll" horiz-adv-x="1040" d="M1031.962 803.853c-7.237-9.085-14.322-18.504-28.232-13.013-12.422 4.851-14.859 15.4-15.066 27.001-0.41 22.611-5.57 43.914-18.376 62.778-20.045 29.592-54.642 42.81-86.774 33.596-37.035-10.42-62.547-40.731-63.907-77.15-0.795-21.739 0-43.631-0.462-65.267-0.333-16.451-8.752-24.998-22.816-24.69-11.242 0.23-19.378 6.776-19.352 16.63 0 33.981 0 68.219 4.338 101.79 2.283 17.196 14.090 33.16 21.867 50.253-2.2 0.439-4.432 0.697-6.674 0.77-169.803 0-339.597 0-509.382 0-64.163 0-107.795-45.428-107.795-110.849-0.128-231.656-0.437-463.312 0.258-694.968 0.154-48.354-6.366-93.32-44.094-130.894 5.261-0.333 8.008-0.667 10.754-0.667 176.236 0 352.473 0 528.708 0 48.765 0 95.758 41.066 98.813 89.598 3.106 49.714 1.925 99.71 2.566 149.578 0.154 12.371-0.181 24.768 0 37.112 0.179 12.346 7.699 20.302 19.378 20.995 12.525 0.718 21.379-6.262 23.253-18.608 0.347-2.963 0.475-5.949 0.384-8.931 0-54.179 0.437-108.386 0-162.539-0.693-70.811-47.147-130.894-112.747-146.525-10.349-2.496-20.95-3.789-31.595-3.85-213.314-0.222-426.627-0.282-639.942-0.179-15.964 0-26.127 7.699-26.641 19.608-0.565 13.115 8.803 23.536 23.099 23.459 56.849-0.334 105.536 47.738 104.92 111.926-0.667 72.941-0.154 145.883-0.154 218.85 0 164.259 1.72 328.517-0.719 492.776-1.232 83.926 60.494 146.883 125.247 155.763 1.222 0.373 2.381 0.927 3.44 1.643h660.32c1.002-0.693 1.95-1.822 3.054-2.053 41.886-7.7 70.477-33.031 88.315-70.323 7.546-15.784 10.882-33.596 16.142-50.51l-0.128-33.108zM577.349 164.347c-4.414-43.811-27.179-72.917-65.293-86.16-44.838-15.552-91.214-26.87-137.234-38.805-15.398-4.005-27.179 12.19-23.099 30.798 5.981 26.974 12.602 53.896 19.403 80.614 2.722 10.702 6.699 21.072 10.112 31.568 14.784 45.326 41.066 78.229 92.962 84.106-4.518 25.821 8.238 43.272 25.101 60.006 101.070 100.454 201.893 201.157 302.467 302.109 2.976 2.976 5.749 6.107 8.546 9.085-24.278 30.594-58.491 33.134-85.44 6.365-43.63-43.298-86.851-86.954-130.304-130.381-7.365-7.339-15.066-14.192-26.896-9.496-13.45 5.339-18.429 19.173-10.651 31.312 2.944 4.181 6.315 8.043 10.061 11.525 40.062 40.192 81.59 79.022 119.909 120.806 43.837 47.814 110.13 50.792 155.301 0.795 19.994 12.011 41.424 20.226 65.806 17.606 38.114-4.106 65.755-23.406 80.461-58.44 13.885-33.082 10.754-66.73-12.832-93.806-31.466-35.933-66.218-68.861-99.966-102.662-79.256-79.408-158.896-158.432-238.022-237.944-16.837-16.99-34.186-31.261-60.39-29.002zM686.53 455.65c-54.258-55.232-109.541-111.389-164.643-167.723-7.957-8.136-7.392-17.12 1.077-25.794 14.578-14.886 29.438-29.464 44.146-44.222 13.653-13.706 20.147-13.782 34.083 0 38.482 38.037 76.92 76.115 115.315 114.237 15.886 15.784 31.542 31.851 47.891 48.379l-77.869 75.123zM796.506 412.942c26.384 26.461 53.642 53.461 80.616 80.64 21.045 21.123 42.861 41.63 62.726 63.856s16.733 53.565-5.134 73.224c-20.994 18.864-52.075 17.811-72.606-2.746-44.898-44.933-89.726-89.933-134.488-135.002-2.027-2.053-3.798-4.312-5.698-6.442l74.584-73.531zM398.075 91.56l3.928-2.566c7.699 1.874 15.758 3.131 23.304 5.672 27.282 9.162 55.334 16.758 81.333 28.797 21.43 9.906 29.978 30.234 26.77 54.384-2.438 18.171-20.275 38.499-38.37 43.632-12.662 3.717-26.258 2.558-38.109-3.246s-21.101-15.835-25.926-28.117c-12.859-32.133-22.125-65.653-32.93-98.555z" />
<glyph unicode="&#xe90c;" glyph-name="pdf" horiz-adv-x="939" d="M414.505 389.478l81.931 34.543-81.931 51.978v-86.521zM276.153 244.261c-11.651-10.388-22.658-21.356-32.969-32.853-6.046-6.571-11.006-14.339-5.787-23.467s14.391-14.362 25.192-12.695c8.19 1.267 18.241 4.553 23.021 10.114 29.429 34.402 49.608 73.263 63.173 114.987l-2.868 2.487c-23.305-19.501-46.921-38.673-69.762-58.573zM759.802 427.901c-17.168 0.34-34.342-0.2-51.443-1.62-28.421-2.534-56.688-6.218-85.031-9.387 0-1.22-0.207-2.464-0.336-3.684 47.102-17.178 96.245-27.127 146.344-33.557 12.531-1.619 21.497 5.961 22.892 17.318 2.248 18.163-10.309 30.647-32.426 30.929zM907.75 766.043c-45.218 40.535-90.091 81.367-134.618 122.496-13.358 12.32-27.233 23.467-45.758 28.794h-597.676c-38.265-12.015-51.675-37.218-51.52-73.052 0.672-266.159 0.758-532.309 0.258-798.449 0-22.835 6.382-42.598 27.569-56.32 7.157-4.693 15.761-7.33 23.693-10.914h757.402c27.802 8.397 45.218 25.412 51.524 51.627v689.988c-3.874 18.914-16.256 32.713-30.874 45.83zM758.018 341.11c-70.067 9.047-138.276 27.456-202.412 54.63-3.796 1.33-7.98 1.446-11.859 0.329-46.994-13.603-91.936-32.475-133.787-56.18-4.754-2.674-7.752-9.667-9.172-15.159-13.823-56.649-37.827-109.215-74.671-156.734-22.788-29.38-59.71-40.691-92.059-28.16-41.728 16.239-55.758 57.798-28.757 90.933 29.326 35.951 65.524 66.106 103.867 93.867 15.71 11.452 32.556 21.636 48.446 32.853 3.707 2.781 6.252 6.633 7.208 10.912 8.449 46.534 8.836 93.374 4.522 140.261-0.413 4.365-4.238 9.152-7.752 12.484-41.89 38.773-78.166 82.239-107.949 129.348-26.561 41.559-6.176 90.276 42.425 102.572 24.675 6.242 53.045-2.863 62.76-24.922 13.46-30.712 24.538-62.242 33.149-94.359 8.346-30.953 12.247-62.915 18.526-94.383 0.852-4.423 3.148-8.51 6.589-11.733 39.062-32.298 82.533-59.901 129.343-82.133 5.266-2.301 11.249-2.865 16.923-1.597 62.346 15.747 125.959 22.646 190.449 24.077 47.205 1.056 82.163-27.644 81.982-67.842s-33.382-64.815-77.771-59.065zM325.589 702.288c-4.986 14.667-16.614 16.896-29.558 7.040-11.627-8.87-15.89-20.908-7.468-33.463 21.084-31.398 43.924-61.881 65.912-92.716l4.392 2.042c-2.403 11.428-4.057 23.020-7.363 34.214-8.165 27.761-16.588 55.451-25.916 82.883z" />
<glyph unicode="&#xe90d;" glyph-name="caret-right" horiz-adv-x="602" d="M570.033 408.53c16.295 14.131 16.295 49.457 0 63.588l-513.309 445.115c-16.296 14.131-36.665-3.533-36.665-31.794v-890.227c0-28.262 20.369-45.929 36.665-31.798l513.309 445.117z" />
<glyph unicode="&#xe90e;" glyph-name="caret-left" horiz-adv-x="640" d="M34.34 414.219c-17.314 15.014-17.314 52.548 0 67.562l545.391 472.935c17.314 15.014 38.956-3.753 38.956-33.781v-945.869c0-30.029-21.642-48.794-38.956-33.779l-545.391 472.932z" />
<glyph unicode="&#xe90f;" glyph-name="x-circle" d="M512.005 823.467c-207.366 0-375.468-168.102-375.468-375.466 0-207.366 168.102-375.465 375.468-375.465s375.465 168.1 375.465 375.465c0 207.365-168.1 375.466-375.465 375.466zM34.137 448.001c0 263.919 213.948 477.867 477.868 477.867 263.916 0 477.865-213.948 477.865-477.867 0-263.916-213.949-477.865-477.865-477.865-263.92 0-477.868 213.949-477.868 477.865zM676.204 612.204c19.994-19.995 19.994-52.413 0-72.408l-91.796-91.796 91.796-91.796c19.994-19.994 19.994-52.413 0-72.407s-52.413-19.994-72.407 0l-91.796 91.796-91.796-91.796c-19.995-19.994-52.413-19.994-72.408 0s-19.995 52.413 0 72.407l91.796 91.796-91.796 91.796c-19.995 19.995-19.995 52.413 0 72.408s52.413 19.995 72.408 0l91.796-91.796 91.796 91.796c19.994 19.995 52.413 19.995 72.407 0z" />
<glyph unicode="&#xe910;" glyph-name="shield" d="M0 532.24v376.159c13.401 40.117 43.019 51.554 83.263 51.554 289.012-0.811 577.978-0.427 866.989-0.427 47.885 0 73.277-25.606 73.318-73.448 0-103.151 0.301-206.302 0-309.455-0.256-54.669-5.12-108.995-19.587-161.917-61.968-226.957-203.613-380.512-424.938-460.659-19.462-7.085-39.648-12.122-59.45-18.096h-15.408c-3.379 1.562-6.858 2.902-10.413 4.013-111.843 27.331-214.195 84.451-296.18 165.29-99.133 95.616-164.956 220.528-187.78 356.355-4.182 23.43-6.615 47.072-9.816 70.63zM510.675 255.776c75.027 0 150.042 0 225.040 0 5.51-0.134 11.018 0.426 16.387 1.664 2.454 0.426 4.8 1.338 6.896 2.685s3.901 3.104 5.306 5.162c1.405 2.058 2.384 4.374 2.874 6.819 0.493 2.442 0.49 4.96-0.010 7.402-8.538 47.37-25.606 89.622-72.554 111.984-29.872 14.211-60.73 26.63-91.37 39.264-15.834 6.573-21.341 22.874-11.651 37.514 3.754 5.632 8.534 10.71 12.246 16.346 30.131 44.298 37.642 93.59 34.144 146.17-2.029 29.51-14.522 57.328-35.229 78.451s-48.275 34.164-77.738 36.776c-64.614 5.804-120.864-31.325-136.013-94.231-8.259-36.334-7.011-74.183 3.626-109.895 7.648-25.786 20.099-49.894 36.704-71.056 12.803-17.072 8.109-32.861-11.098-40.416-24.112-9.475-48.010-19.546-71.952-29.491-49.763-20.57-77.375-58.125-88.556-110.448-5.505-25.949 8.962-35.421 29.063-35.21 74.687 1.069 149.116 0.512 223.884 0.512z" />
<glyph unicode="&#xe911;" glyph-name="arrow-left" horiz-adv-x="1088" d="M35.84 537.6c-22.166-22.225-35.873-52.897-35.873-86.771 0-0.995 0.012-1.987 0.035-2.976l-0.003 0.147c-0.021-0.842-0.033-1.834-0.033-2.829 0-33.874 13.706-64.546 35.875-86.774l383.997-383.997c21.711-19.363 50.503-31.196 82.058-31.196 68.218 0 123.52 55.302 123.52 123.52 0 31.715-11.953 60.638-31.599 82.51l0.101-0.114-176 176h542.080c2.659-0.204 5.759-0.32 8.885-0.32 68.218 0 123.52 55.302 123.52 123.52s-55.302 123.52-123.52 123.52c-3.127 0-6.227-0.116-9.295-0.344l0.41 0.024h-541.44l177.92 177.92c19.545 21.758 31.498 50.681 31.498 82.396 0 68.218-55.302 123.52-123.52 123.52-31.555 0-60.347-11.833-82.18-31.303l0.122 0.107z" />
<glyph unicode="&#xe912;" glyph-name="alert_2" d="M512 918.857c-265 0-480-215-480-480s215-480 480-480 480 215 480 480-215 480-480 480zM512 150.857c-35.2 0-64 28.8-64 64s28.8 64 64 64 64-28.8 64-64-28.8-64-64-64zM585.2 647.257l-21.4-256.6c-2.2-26.8-24.6-47.6-51.8-47.6s-49.6 20.8-51.8 47.6l-21.4 256.6c-3.6 42.8 30 79.6 73.2 79.6 41 0 73.6-33.2 73.6-73.6 0-2 0-4.2-0.4-6v0z" />
<glyph unicode="&#xe913;" glyph-name="plate" horiz-adv-x="1755" d="M274.937 949.446c-121.187 0-219.428-98.241-219.428-219.428v-511.767c0-121.183 98.242-219.429 219.428-219.429h1214.829c121.19 0 219.429 98.245 219.429 219.429v511.767c0 121.187-98.238 219.429-219.429 219.429h-1214.829zM201.795 730.018c0 40.395 32.747 73.142 73.143 73.142h1214.829c40.397 0 73.143-32.747 73.143-73.143v-511.767c0-40.397-32.746-73.143-73.143-73.143h-1214.829c-40.395 0-73.143 32.746-73.143 73.143v511.767zM365.558 437.051c-40.395 0-73.143-32.747-73.143-73.143s32.748-73.143 73.143-73.143h1010.274c40.397 0 73.143 32.748 73.143 73.143s-32.746 73.143-73.143 73.143h-1010.274z" />
<glyph unicode="&#xe914;" glyph-name="camera" horiz-adv-x="1144" d="M857.588 747.561h136.294c58.133 0 105.412-47.277 105.412-105.412v-579.763c0-58.139-47.279-105.412-105.412-105.412h-843.294c-58.134 0-105.412 47.273-105.412 105.412v579.763c0 58.134 47.277 105.412 105.412 105.412h136.297l142.675 142.675c4.886 4.904 10.694 8.793 17.089 11.444s13.251 4.010 20.174 4h210.824c6.921 0.010 13.776-1.349 20.173-4s12.204-6.539 17.089-11.444l142.679-142.675zM150.588 642.149v-579.763h843.403l-0.108 579.763h-158.118c-6.921-0.010-13.776 1.349-20.173 4s-12.204 6.539-17.089 11.443l-142.679 142.675h-167.18l-142.675-142.675c-9.856-9.909-23.244-15.443-37.263-15.443h-158.118zM361.412 378.62c0 114.266 96.557 210.824 210.824 210.824s210.824-96.557 210.824-210.824c0-114.265-96.557-210.822-210.824-210.822s-210.824 96.557-210.824 210.822zM466.824 378.62c0-56.131 49.28-105.41 105.412-105.41 56.133 0 105.412 49.278 105.412 105.41s-49.278 105.412-105.412 105.412c-56.131 0-105.412-49.28-105.412-105.412z" />
<glyph unicode="&#xe915;" glyph-name="Vector" d="M827.603 845.773c2.223 15.568-1.831 31.382-11.27 43.963-4.668 6.229-10.523 11.477-17.227 15.443-6.698 3.967-14.113 6.575-21.823 7.675s-15.559 0.672-23.1-1.261c-7.547-1.933-14.631-5.333-20.866-10.006-12.577-9.437-20.896-23.485-23.118-39.053l-26.564-186.579h-275.518l24.192 169.581c1.403 7.838 1.214 15.879-0.558 23.642s-5.088 15.090-9.753 21.543c-4.665 6.453-10.581 11.901-17.397 16.018s-14.391 6.819-22.273 7.946c-7.883 1.126-15.912 0.653-23.607-1.391s-14.901-5.617-21.186-10.507c-6.285-4.889-11.521-10.994-15.395-17.951s-6.307-14.623-7.155-22.54l-26.722-186.263h-112.263c-15.726 0.011-30.812-6.227-41.939-17.339s-17.384-26.19-17.395-41.916c-0.010-15.726 6.227-30.812 17.339-41.939s26.19-17.384 41.915-17.395h95.424l-33.837-237.173h-140.566c-15.726 0-30.808-6.252-41.928-17.372s-17.367-26.202-17.367-41.924c0-15.727 6.247-30.81 17.367-41.93s26.201-17.366 41.928-17.366h123.727l-24.192-169.502c-1.1-7.71-0.672-15.559 1.261-23.1 1.934-7.547 5.333-14.631 10.006-20.859 4.672-6.234 10.527-11.481 17.227-15.444 6.701-3.97 14.117-6.578 21.826-7.68 7.709-1.096 15.559-0.669 23.102 1.265s14.631 5.331 20.86 10.005c6.23 4.674 11.477 10.529 15.444 17.227s6.575 14.119 7.676 21.829l26.564 186.26h275.517l-24.19-169.502c-1.1-7.71-0.672-15.559 1.261-23.1 1.934-7.547 5.333-14.631 10.008-20.859 4.668-6.234 10.523-11.481 17.227-15.444 6.698-3.97 14.113-6.578 21.823-7.68 7.71-1.096 15.559-0.669 23.1 1.265 7.547 1.934 14.637 5.331 20.866 10.005s11.475 10.529 15.444 17.227c3.963 6.698 6.572 14.119 7.674 21.829l26.642 186.26h112.182c15.727 0 30.81 6.246 41.93 17.366s17.366 26.202 17.366 41.93c0 15.721-6.246 30.804-17.366 41.924s-26.202 17.372-41.93 17.372h-95.346l33.84 237.173 140.565-0.079c15.727 0 30.81 6.247 41.93 17.367s17.366 26.201 17.366 41.927c0 15.726-6.246 30.808-17.366 41.927s-26.202 17.367-41.93 17.367h-123.645l24.19 169.818zM666.72 557.366l-33.84-237.095h-275.519l33.837 237.173 275.522-0.079z" />
<glyph unicode="&#xe916;" glyph-name="minus" d="M14.629 468.114h998.599v-58.514h-998.599v58.514z" />
<glyph unicode="&#xe917;" glyph-name="plus1" d="M14.629 468.114h998.599v-58.514h-998.599v58.514zM482.743-52.078v1002.935h58.514v-1002.935h-58.514z" />
<glyph unicode="&#xe918;" glyph-name="bell" d="M835.484 281.29h-0.053c-24.941 0.013-39.022 12.976-47.082 43.315-8.239 31.028-8.516 76.027-8.808 123.669-0.351 57.723-0.748 123.146-15.074 181.657-1.694 6.919-8.675 11.154-15.584 9.457-6.902-1.697-11.13-8.682-9.443-15.6 13.612-55.562 13.996-119.375 14.34-175.673 0.304-49.333 0.582-95.928 9.668-130.137 3.951-14.878 9.615-27.105 16.934-36.688h-536.763c7.319 9.583 12.983 21.81 16.934 36.688 9.086 34.209 9.37 80.805 9.668 130.137 0.457 75.318 0.979 160.682 31.75 226.013 34.635 73.542 103.336 109.295 210.033 109.295 58.596 0 106.545-11.028 142.51-32.785 31.187-18.861 54.083-45.668 69.998-81.951 2.859-6.521 10.462-9.49 16.973-6.621 6.511 2.863 9.476 10.471 6.617 16.999-17.873 40.744-44.879 72.256-80.268 93.662-22.591 13.665-49.12 23.52-79.335 29.524-3.044 39.611-36.177 70.924-76.496 70.924s-73.459-31.32-76.483-70.937c-28.825-5.719-54.308-14.938-76.178-27.629-35.191-20.425-62.335-50.532-80.678-89.473-33.192-70.48-33.735-158.873-34.205-236.861-0.291-47.643-0.562-92.641-8.808-123.669-8.060-30.339-22.141-43.302-47.082-43.315h-0.053c-41.643 0-75.523-33.931-75.523-75.642 0-41.705 33.881-75.636 75.523-75.636h81.532c7.114 0 12.884 5.779 12.884 12.903s-5.77 12.896-12.884 12.896h-81.532c-27.435 0-49.762 22.36-49.762 49.836s22.32 49.83 49.756 49.836h646.98c27.429-0.007 49.749-22.36 49.749-49.836s-22.327-49.836-49.762-49.836h-513.9c-7.114 0-12.877-5.772-12.877-12.896s5.764-12.903 12.877-12.903h52.879c6.518-70.274 65.703-125.472 137.547-125.472 71.837 0 131.023 55.198 137.541 125.472h185.94c41.643 0 75.523 33.931 75.523 75.636 0 41.711-33.881 75.642-75.523 75.642zM512.003 847.375c24.669 0 45.302-17.648 49.98-40.996-15.815 1.869-32.464 2.843-49.98 2.843s-34.165-0.968-49.974-2.836c4.678 23.347 25.305 40.989 49.974 40.989zM512.003 30.339c-57.623 0-105.235 43.66-111.647 99.672h223.288c-6.412-56.013-54.024-99.672-111.641-99.672zM719.668 792.418c0.225-0.126 22.496-13.283 44.408-43.846 29.352-40.933 44.228-92.069 44.228-151.992 0-7.15 5.603-12.95 12.511-12.95s12.511 5.8 12.511 12.95c0 82.491-27.213 137.246-50.043 168.647-25.086 34.508-50.409 49.227-51.476 49.839-6.034 3.445-13.603 1.184-16.957-5.042-3.354-6.232-1.189-14.108 4.819-17.606zM811.112 785.518c2.13-1.379 52.214-34.599 52.214-118.179 0-7.231 5.935-13.089 13.251-13.089s13.244 5.858 13.244 13.089c0 98.579-61.789 138.579-64.423 140.234-6.146 3.868-14.272 2.078-18.219-3.982-3.947-6.054-2.171-14.138 3.934-18.073zM196.116 583.629c6.906 0 12.509 5.8 12.509 12.95 0 59.922 14.879 111.058 44.22 151.991 21.773 30.37 43.905 43.553 44.394 43.846 6.020 3.465 8.204 11.327 4.87 17.573-3.347 6.259-10.954 8.527-16.999 5.075-1.066-0.612-26.386-15.331-51.467-49.839-22.82-31.401-50.028-86.155-50.028-168.646 0-7.15 5.596-12.95 12.502-12.95zM140.361 654.25c7.312 0 13.237 5.859 13.237 13.089 0 83.513 49.983 116.753 52.187 118.173 6.122 3.894 7.918 11.959 4.007 18.040-3.925 6.101-12.108 7.897-18.285 4.016-2.626-1.655-64.39-41.649-64.39-140.228 0-7.231 5.932-13.089 13.244-13.089z" />
<glyph unicode="&#xe919;" glyph-name="budget" d="M267.953 746.039v52.829c11.364-3.672 18.507-11.062 18.507-17.916 0-8.396 6.905-15.204 15.423-15.204s15.423 6.806 15.423 15.204c0 24.244-20.715 43.994-49.353 49.276v2.416c0 8.396-6.905 15.204-15.423 15.204s-15.423-6.806-15.423-15.204v-2.416c-28.636-5.284-49.353-25.033-49.353-49.276 0-33.874 27.445-48.111 49.353-56.306v-52.831c-11.364 3.672-18.507 11.062-18.507 17.916 0 8.396-6.905 15.204-15.423 15.204s-15.423-6.806-15.423-15.204c0-24.244 20.715-43.994 49.353-49.276v-2.416c0-8.396 6.905-15.204 15.423-15.204s15.423 6.806 15.423 15.204v2.416c28.636 5.284 49.353 25.033 49.353 49.276 0 33.876-27.445 48.113-49.353 56.308zM237.109 757.818c-15.375 7.428-18.507 13.916-18.507 23.135 0 6.854 7.143 14.244 18.507 17.916v-41.051zM267.953 671.818v41.051c15.375-7.428 18.507-13.916 18.507-23.135 0-6.854-7.143-14.244-18.507-17.916zM506.326 813.755h-132.572c-8.579 0-15.536-7.631-15.536-17.046 0-9.413 6.955-17.046 15.536-17.046h132.572c8.579 0 15.536 7.631 15.536 17.046 0 9.413-6.957 17.046-15.536 17.046zM390.383 684.203h-16.601c-8.595 0-15.564-7.631-15.564-17.046s6.968-17.046 15.564-17.046h16.601c8.595 0 15.564 7.631 15.564 17.046s-6.97 17.046-15.564 17.046zM669.887 568.288h-466.513c-8.626 0-15.62-7.631-15.62-17.046s6.993-17.046 15.62-17.046h466.513c8.626 0 15.62 7.631 15.62 17.046s-6.995 17.046-15.62 17.046zM356.119 472.828h-50.352c-8.689 0-15.735-7.631-15.735-17.046s7.044-17.046 15.735-17.046h50.352c8.689 0 15.735 7.631 15.735 17.046s-7.044 17.046-15.735 17.046zM239.442 472.828h-35.192c-9.11 0-16.497-7.631-16.497-17.046s7.385-17.046 16.497-17.046h35.192c9.11 0 16.497 7.631 16.497 17.046s-7.387 17.046-16.497 17.046zM356.119 397.824h-50.352c-8.689 0-15.735-7.631-15.735-17.046 0-9.413 7.044-17.046 15.735-17.046h50.352c8.689 0 15.735 7.631 15.735 17.046s-7.044 17.046-15.735 17.046zM239.442 397.824h-35.192c-9.11 0-16.497-7.631-16.497-17.046 0-9.413 7.385-17.046 16.497-17.046h35.192c9.11 0 16.497 7.631 16.497 17.046s-7.387 17.046-16.497 17.046zM356.119 336.457h-50.352c-8.689 0-15.735-7.631-15.735-17.046s7.044-17.046 15.735-17.046h50.352c8.689 0 15.735 7.631 15.735 17.046s-7.044 17.046-15.735 17.046zM239.442 336.457h-35.192c-9.11 0-16.497-7.631-16.497-17.046s7.385-17.046 16.497-17.046h35.192c9.11 0 16.497 7.631 16.497 17.046s-7.387 17.046-16.497 17.046zM356.119 268.272h-50.352c-8.689 0-15.735-7.631-15.735-17.046s7.044-17.046 15.735-17.046h50.352c8.689 0 15.735 7.631 15.735 17.046s-7.044 17.046-15.735 17.046zM239.442 268.272h-35.192c-9.11 0-16.497-7.631-16.497-17.046s7.385-17.046 16.497-17.046h35.192c9.11 0 16.497 7.631 16.497 17.046s-7.387 17.046-16.497 17.046zM356.119 206.905h-50.352c-8.689 0-15.735-7.631-15.735-17.046s7.044-17.046 15.735-17.046h50.352c8.689 0 15.735 7.631 15.735 17.046s-7.044 17.046-15.735 17.046zM239.442 206.905h-35.192c-9.11 0-16.497-7.631-16.497-17.046s7.385-17.046 16.497-17.046h35.192c9.11 0 16.497 7.631 16.497 17.046s-7.387 17.046-16.497 17.046zM554.028 684.203h-16.601c-8.595 0-15.564-7.631-15.564-17.046s6.968-17.046 15.564-17.046h16.601c8.595 0 15.564 7.631 15.564 17.046s-6.97 17.046-15.564 17.046zM635.851 684.203h-16.601c-8.595 0-15.564-7.631-15.564-17.046s6.968-17.046 15.564-17.046h16.601c8.595 0 15.564 7.631 15.564 17.046s-6.968 17.046-15.564 17.046zM472.205 684.203h-16.601c-8.595 0-15.564-7.631-15.564-17.046s6.968-17.046 15.564-17.046h16.601c8.595 0 15.564 7.631 15.564 17.046s-6.97 17.046-15.564 17.046zM540.344 752.389h-166.515c-8.621 0-15.611-7.631-15.611-17.046s6.989-17.046 15.611-17.046h166.515c8.621 0 15.611 7.631 15.611 17.046s-6.989 17.046-15.611 17.046zM838.091 500.346h-67.696v248.717c0 4.105-1.645 8.043-4.576 10.945l-166.639 165.129c-2.929 2.904-6.902 4.534-11.045 4.534h-433.255c-26.991 0-48.949-21.759-48.949-48.506v-792.603c0-26.747 21.958-48.506 48.949-48.506h250.996v-34.058c0-35.852 29.435-65.018 65.613-65.018h366.6c36.179 0 65.613 29.168 65.613 65.018v429.329c0.002 35.852-29.433 65.018-65.611 65.018zM603.758 876.818l113.301-112.274h-78.932c-18.951 0-34.369 15.278-34.369 34.058v78.217zM405.876 435.328v-364.309h-250.996c-9.763 0-17.706 7.871-17.706 17.545v792.601c0 9.674 7.943 17.545 17.706 17.545h417.633v-100.109c0-35.852 29.435-65.018 65.613-65.018h101.024v-233.236h-267.659c-36.179-0.002-65.614-29.168-65.614-65.020zM872.46 5.999c0-18.779-15.418-34.058-34.369-34.058h-366.6c-18.951 0-34.369 15.278-34.369 34.058v429.329c0 18.779 15.418 34.058 34.369 34.058h366.6c18.951 0 34.369-15.278 34.369-34.058v-429.329zM803.507 431.917h-297.366c-17.65 0-32.008-14.298-32.008-31.874v-65.805c0-17.576 14.358-31.874 32.008-31.874h297.366c17.65 0 32.008 14.298 32.008 31.874v65.805c0 17.576-14.358 31.874-32.008 31.874zM804.541 334.238c0-0.568-0.462-1.027-1.032-1.027h-297.368c-0.57 0-1.032 0.46-1.032 1.027v65.805c0 0.568 0.462 1.027 1.032 1.027h297.366c0.57 0 1.032-0.46 1.032-1.027v-65.805h0.002zM538.111 247.816h-32.496c-17.36 0-31.482-14.122-31.482-31.482v-32.496c0-17.36 14.122-31.482 31.482-31.482h32.496c17.36 0 31.482 14.122 31.482 31.482v32.496c0 17.36-14.122 31.482-31.482 31.482zM539.127 183.836c0-0.561-0.454-1.015-1.015-1.015h-32.498c-0.561 0-1.015 0.454-1.015 1.015v32.496c0 0.561 0.454 1.015 1.015 1.015h32.496c0.561 0 1.015-0.454 1.015-1.015v-32.496h0.002zM804.034 247.816h-32.496c-17.36 0-31.482-14.122-31.482-31.482v-32.496c0-17.36 14.122-31.482 31.482-31.482h32.496c17.36 0 31.482 14.122 31.482 31.482v32.496c0 17.36-14.122 31.482-31.482 31.482zM805.051 183.836c0-0.561-0.454-1.015-1.015-1.015h-32.496c-0.561 0-1.015 0.454-1.015 1.015v32.496c0 0.561 0.454 1.015 1.015 1.015h32.496c0.561 0 1.015-0.454 1.015-1.015v-32.496zM667.663 247.816h-32.496c-17.36 0-31.482-14.122-31.482-31.482v-32.496c0-17.36 14.122-31.482 31.482-31.482h32.496c17.36 0 31.482 14.122 31.482 31.482v32.496c0 17.36-14.122 31.482-31.482 31.482zM668.678 183.836c0-0.561-0.454-1.015-1.015-1.015h-32.496c-0.561 0-1.015 0.454-1.015 1.015v32.496c0 0.561 0.454 1.015 1.015 1.015h32.496c0.561 0 1.015-0.454 1.015-1.015v-32.496zM538.111 118.263h-32.496c-17.36 0-31.482-14.122-31.482-31.482v-32.496c0-17.36 14.122-31.482 31.482-31.482h32.496c17.36 0 31.482 14.122 31.482 31.482v32.496c0 17.36-14.122 31.482-31.482 31.482zM539.127 54.285c0-0.561-0.454-1.015-1.015-1.015h-32.498c-0.561 0-1.015 0.454-1.015 1.015v32.496c0 0.561 0.454 1.015 1.015 1.015h32.496c0.561 0 1.015-0.454 1.015-1.015v-32.496h0.002zM804.034 118.263h-32.496c-17.36 0-31.482-14.122-31.482-31.482v-32.496c0-17.36 14.122-31.482 31.482-31.482h32.496c17.36 0 31.482 14.122 31.482 31.482v32.496c0 17.36-14.122 31.482-31.482 31.482zM805.051 54.285c0-0.561-0.454-1.015-1.015-1.015h-32.496c-0.561 0-1.015 0.454-1.015 1.015v32.496c0 0.561 0.454 1.015 1.015 1.015h32.496c0.561 0 1.015-0.454 1.015-1.015v-32.496zM667.663 118.263h-32.496c-17.36 0-31.482-14.122-31.482-31.482v-32.496c0-17.36 14.122-31.482 31.482-31.482h32.496c17.36 0 31.482 14.122 31.482 31.482v32.496c0 17.36-14.122 31.482-31.482 31.482zM668.678 54.285c0-0.561-0.454-1.015-1.015-1.015h-32.496c-0.561 0-1.015 0.454-1.015 1.015v32.496c0 0.561 0.454 1.015 1.015 1.015h32.496c0.561 0 1.015-0.454 1.015-1.015v-32.496z" />
<glyph unicode="&#xe91a;" glyph-name="vehicle" d="M988.734 669c-25.36 0-45.992 21.612-45.992 48.182 0 8.147-6.303 14.75-14.080 14.75s-14.080-6.603-14.080-14.75c0-26.568-20.63-48.182-45.992-48.182-7.777 0-14.080-6.603-14.080-14.75s6.303-14.75 14.080-14.75c25.36 0 45.992-21.614 45.992-48.182 0-8.147 6.303-14.75 14.080-14.75s14.080 6.603 14.080 14.75c0 26.568 20.63 48.182 45.992 48.182 7.777 0 14.080 6.603 14.080 14.75s-6.303 14.75-14.080 14.75zM928.664 636.813c-4.631 6.691-10.26 12.585-16.645 17.437 6.387 4.852 12.015 10.748 16.645 17.437 4.631-6.691 10.26-12.585 16.645-17.437-6.387-4.852-12.013-10.748-16.645-17.437zM148.348 669c-25.359 0-45.992 21.612-45.992 48.182 0 8.147-6.305 14.75-14.080 14.75s-14.080-6.603-14.080-14.75c0-26.568-20.634-48.182-45.992-48.182-7.775 0-14.080-6.603-14.080-14.75s6.305-14.75 14.080-14.75c25.359 0 45.992-21.614 45.992-48.182 0-8.147 6.305-14.75 14.080-14.75s14.080 6.603 14.080 14.75c0 26.568 20.634 48.182 45.992 48.182 7.775 0 14.080 6.603 14.080 14.75s-6.305 14.75-14.080 14.75zM88.276 636.813c-4.631 6.691-10.258 12.585-16.645 17.437 6.389 4.852 12.015 10.748 16.645 17.437 4.631-6.691 10.258-12.585 16.645-17.437-6.385-4.852-12.013-10.748-16.645-17.437zM585.778 859.424c-34.636 0-62.815 28.176-62.815 62.815 0.002 8.005-6.487 14.494-14.494 14.494-8.005 0-14.496-6.489-14.496-14.496 0-34.636-28.18-62.815-62.815-62.815-8.005 0-14.496-6.489-14.496-14.496s6.491-14.496 14.496-14.496c34.634 0 62.815-28.178 62.815-62.815 0-8.007 6.491-14.496 14.496-14.496 8.007 0 14.496 6.489 14.496 14.496 0 34.636 28.178 62.815 62.815 62.815 8.007 0 14.496 6.489 14.496 14.496s-6.491 14.498-14.498 14.498zM508.469 817.085c-7.166 11.157-16.685 20.677-27.845 27.843 11.159 7.166 20.678 16.685 27.845 27.843 7.166-11.157 16.685-20.677 27.843-27.843-11.157-7.166-20.677-16.685-27.843-27.843zM818.367 441.078l-56.879 164.361c-4.255 12.3-15.708 20.563-28.496 20.563h-442.004c-12.79 0-24.24-8.263-28.496-20.561l-56.879-164.363c-3.304-9.547 3.876-19.876 13.788-19.876h585.177c4.744 0 9.194 2.35 11.933 6.299 2.742 3.951 3.434 9.013 1.854 13.578zM240.068 451.028l50 144.486c0.132 0.383 0.52 0.663 0.918 0.663h442.006c0.399 0 0.786-0.28 0.92-0.665l50-144.484h-543.845zM783.89 251.712c-51.481 0-91.807-27.919-91.807-63.559s40.326-63.559 91.807-63.559c51.481 0 91.807 27.919 91.807 63.559s-40.326 63.559-91.807 63.559zM783.89 154.862c-35.953 0-62.816 17.576-62.816 33.292s26.861 33.292 62.816 33.292c35.953 0 62.816-17.576 62.816-33.292s-26.863-33.292-62.816-33.292zM218.924 251.712c-51.481 0-91.807-27.919-91.807-63.559s40.326-63.559 91.807-63.559c51.481 0 91.807 27.919 91.807 63.559s-40.326 63.559-91.807 63.559zM218.924 154.862c-35.951 0-62.816 17.576-62.816 33.292s26.863 33.292 62.816 33.292c35.953 0 62.816-17.576 62.816-33.292s-26.863-33.292-62.816-33.292zM974.141 471.747h-77.611c-6.677 0-12.498-4.588-14.117-11.126l-10.223-41.274-71.497 204.476c-10.794 30.871-39.838 51.614-72.272 51.614h-439.899c-32.434 0-61.478-20.743-72.272-51.616l-71.496-204.476-10.223 41.276c-1.621 6.54-7.442 11.126-14.117 11.126h-77.613c-8.036 0-14.553-6.576-14.553-14.69v-62.674c0-8.114 6.516-14.69 14.553-14.69h80.378l-49.611-70.108c-9.338-13.196-14.274-28.748-14.274-44.966v-183.603c0-25.441 12.233-48.049 31.069-62.156-0.006-0.172-0.025-0.342-0.025-0.516v-47.005c0-16.74 13.492-30.357 30.074-30.357h93.134c16.584 0 30.074 13.619 30.074 30.357v32.315h529.698v-32.315c0-16.74 13.492-30.357 30.074-30.357h93.134c16.584 0 30.074 13.619 30.074 30.357v47.005c0 0.174-0.019 0.344-0.025 0.516 18.836 14.107 31.069 36.716 31.069 62.156v183.603c0 16.22-4.938 31.772-14.276 44.966l-49.611 70.108h80.38c8.038 0 14.553 6.576 14.553 14.69v62.674c0.002 8.116-6.511 14.69-14.549 14.69zM57.354 409.074v33.295h51.697l8.246-33.295h-59.942zM214.518-28.662c0-0.54-0.434-0.979-0.97-0.979h-93.134c-0.534 0-0.97 0.44-0.97 0.979v32.315h95.074v-32.315zM897.498-28.662c0-0.54-0.436-0.979-0.97-0.979h-93.134c-0.534 0-0.97 0.44-0.97 0.979v32.315h95.074v-32.315zM881.007 33.033h-745.072c-21.137 0-39.088 14-45.25 33.295h835.57c-6.162-19.295-24.111-33.295-45.248-33.295zM633.619 191.674v-33.295h-250.296v33.295h250.296zM385.61 221.054c6.162 19.295 24.111 33.295 45.25 33.295h155.224c21.137 0 39.088-14 45.25-33.295h-245.724zM633.619 129.002v-33.295h-250.296v33.295h250.296zM919.69 292.51c5.792-8.184 8.854-17.829 8.854-27.89v-168.915h-265.819v110.659c0 42.658-34.383 77.362-76.641 77.362h-155.224c-42.26 0-76.641-34.706-76.641-77.362v-110.659h-265.821v168.915c0 10.061 3.062 19.706 8.854 27.89l61.695 87.184h535.79c8.038 0 14.553 6.576 14.553 14.69s-6.514 14.69-14.553 14.69h-522.711l71.668 204.97c6.696 19.146 24.71 32.014 44.828 32.014h439.901c20.116 0 38.13-12.866 44.828-32.014l71.666-204.97h-88.089c-8.038 0-14.553-6.576-14.553-14.69s6.514-14.69 14.553-14.69h101.168l61.695-87.184zM959.588 409.074h-59.944l8.246 33.295h51.699v-33.295zM274.411 301.147h-96.85c-8.357 0-15.133-6.323-15.133-14.124s6.776-14.124 15.133-14.124h96.85c8.357 0 15.133 6.323 15.133 14.124s-6.776 14.124-15.133 14.124zM832.315 301.147h-96.85c-8.359 0-15.133-6.323-15.133-14.124s6.774-14.124 15.133-14.124h96.85c8.359 0 15.133 6.323 15.133 14.124s-6.774 14.124-15.133 14.124z" />
<glyph unicode="&#xe91b;" glyph-name="warning" horiz-adv-x="1195" d="M644.741 154.413c0-31.419-25.47-56.889-56.889-56.889s-56.889 25.47-56.889 56.889c0 31.419 25.47 56.889 56.889 56.889s56.889-25.47 56.889-56.889zM578.37 306.116c15.701 0 28.444 13.297 28.444 29.681v281.971c0 16.384-12.743 29.681-28.444 29.681s-28.444-13.297-28.444-29.681v-281.971c0-16.384 12.743-29.681 28.444-29.681zM708.184 860.466l-1.384 2.143c-28.163 43.379-57.269 88.248-109.474 88.248-54.41 0-82.877-45.507-110.402-89.54-0.137-0.213-0.988-1.581-1.125-1.809l-481.571-815.616c-2.768-4.681-4.228-7.129-4.228-12.555 0-59.217 47.674-104.481 106.266-104.481h982.135c58.607 0 106.266 45.279 106.266 104.481 0 5.426-1.46 9.332-4.212 13.999l-482.271 815.13zM1088.401-12.345h-982.135c-22.217 0-41.317 14.455-44.86 36.387l477.1 806.496c23.631 37.801 39.112 60.235 58.82 60.235 19.176 0 37.363-28.423 58.44-60.889l477.48-805.676c-3.528-21.918-22.628-36.555-44.845-36.555z" />
<glyph unicode="&#xe91c;" glyph-name="print" d="M597.333 97.524h-256v42.667h256v-42.667zM1024 737.524v-554.667h-170.667v-256h-682.667v256h-170.667v554.667h170.667v213.333h682.667v-213.333h170.667zM768 310.857h-512v-298.667h512v298.667zM768 865.524h-512v-128h512v128zM938.667 630.857c0 11.776-9.557 21.333-21.333 21.333s-21.333-9.557-21.333-21.333c0-11.776 9.557-21.333 21.333-21.333s21.333 9.557 21.333 21.333zM682.667 225.524h-341.333v-42.667h341.333v42.667z" />
<glyph unicode="&#xe91d;" glyph-name="search" d="M994.607-2.155l-238.744 238.691c64.043 73.611 102.817 169.653 102.817 274.625 0 231.068-187.989 418.798-418.891 418.798-231.12 0-418.891-187.947-418.891-418.798s187.989-418.798 418.891-418.798c104.995 0 201.059 38.765 274.686 102.794l238.744-238.691c5.664-5.662 13.288-8.711 20.694-8.711s15.030 2.831 20.694 8.711c11.327 11.325 11.327 30.054 0 41.379zM79.495 511.161c0 198.619 161.631 359.996 360.076 359.996 198.663 0 360.076-161.595 360.076-359.996s-161.413-360.214-360.076-360.214c-198.445 0-360.076 161.595-360.076 360.214z" />
<glyph unicode="&#xe91e;" glyph-name="airbag" horiz-adv-x="1127" d="M253.823 477.325c-2.374 0.766-4.912 0.308-6.868-1.121-0.008-0.004-0.015-0.011-0.022-0.015l-25.050-18.546c-0.005-0.004-0.010-0.011-0.015-0.015-1.872-1.404-2.969-3.561-3.044-5.887-0.077-2.4 0.976-4.656 2.851-6.14l40.143-32.444c0.005-0.004 0.010-0.004 0.015-0.008 1.458-1.209 3.174-1.708 4.811-1.708 1.497 0 3.040 0.496 4.306 1.425 2.646 1.878 3.854 5.24 2.962 8.36-0.005 0.015-0.010 0.030-0.015 0.044l-15.161 50.983c-0.694 2.391-2.52 4.298-4.915 5.071zM247.29 457.539l5.115-17.165-13.535 10.929zM447.361 477.169c-2.339 0.453-4.788-0.254-6.519-1.834l-17.544-15.792c-0.004-0.004-0.011-0.011-0.015-0.015-1.681-1.528-2.569-3.713-2.495-5.947 0.078-2.327 1.219-4.435 3.037-5.798h0.008l40.819-30.566c0.019-0.011 0.040-0.027 0.059-0.038 1.297-0.937 2.864-1.477 4.507-1.477 1.756 0 3.466 0.588 4.863 1.752 0.011 0.011 0.027 0.027 0.038 0.038 2.648 2.27 3.49 6.074 1.864 9.251l-23.253 46.387c-0.008 0.015-0.015 0.030-0.023 0.044-1.064 2.053-3.009 3.542-5.346 3.994zM443.998 457.71l7.721-12.317-11.426 8.976zM574.214 546.26c-2.339-0.371-4.435-1.833-5.561-3.935-0.003-0.003-0.004-0.004-0.008-0.008l-12.666-23.773c-0.001-0.002 0.001-0.004 0-0.008-1.151-2.077-1.218-4.549-0.319-6.645 0.908-2.119 2.724-3.714 4.952-4.328 0.003-0.003 0.004-0.004 0.008-0.008l49.127-13.423c0.922-0.346 1.693-0.394 2.316-0.394 2.634 0 5.081 1.39 6.533 3.534 0.044 0.065 0.086 0.132 0.126 0.2 1.743 2.956 1.29 6.765-1.158 9.214l-36.773 37.382c-0.008 0.008-0.015 0.015-0.023 0.023-1.691 1.691-4.109 2.56-6.556 2.168zM577.31 526.318l13.973-12.376-17.588 5.576zM478.061 635.077l0.067-0.030c-2.282 0.866-4.778 0.553-6.771-0.75-1.95-1.275-3.264-3.412-3.423-5.821l-1.789-23.528c0-0.013 0-0.025 0-0.037-0.148-2.226 0.703-4.475 2.346-6.043 0.003-0.003 0.004-0.005 0.008-0.008 1.372-1.3 3.279-2.109 5.242-2.109 0.152 0 0.75 0.010 1.336 0.156l-0.468-0.089 50.582 6.036c3.545 0.377 6.348 3.24 6.726 6.719 0.376 3.463-1.73 6.789-4.989 7.974-0.008 0-0.015 0-0.023 0zM482.352 617.779l14.663-4.061-15.049-0.958zM480.37 950.827c-1.632 0.145-3.305-0.234-4.744-1.143l-44.36-28.012c-2.065-1.3-3.359-3.53-3.512-5.939-0.155-2.397 0.825-4.688 2.621-6.259 0.015-0.013 0.030-0.025 0.044-0.037l20.603-17.447c0.003-0.003 0.004-0.005 0.008-0.008 1.401-1.18 3.167-1.812 4.922-1.812 0.65 0 1.048 0.084 1.344 0.134 0.050 0.006 0.099 0.014 0.149 0.022 2.217 0.459 4.136 1.861 5.219 3.942l23.758 45.459c1.595 3.046 0.892 6.786-1.567 9.095-1.266 1.189-2.853 1.859-4.484 2.005zM462.366 925.020l-8.657-15.406-5.821 4.922zM576.827 374.49c-1.216 0-2.392-0.076-3.608-0.304l-153.157-24.552c-34.82-4.143-57.66-31.288-77.844-55.274-4.714-5.626-9.198-10.905-13.646-15.732-0.342-0.38-0.69-0.762-1.032-1.18-12.62-15.661-42.192-50.1-76.441-89.976-48.466-56.411-103.356-120.313-135.286-160.151-20.641-25.773-17.413-63.056 7.409-84.875 11.252-9.921 25.738-15.361 40.715-15.361 17.030 0 33.45 7.111 45.043 19.541 66.18 70.742 231.348 237.77 233.020 239.442l0.416 0.416c1.292 1.368 3.536 2.279 5.665 2.279 0.57 0 1.102-0.072 1.596-0.186 15.433-4.067 67.775-11.638 140.075-21.902 34.363-4.866 66.826-9.46 74.125-10.981 1.559-0.304 3.12-0.497 4.64-0.497 0.122 0 0.242 0.020 0.364 0.022l-13.119 24.924c-44.39 6.889-177.796 24.554-200.309 30.477-2.395 0.646-4.902 0.95-7.372 0.95-8.287 0-16.617-3.422-22.28-9.466 0 0-166.298-168.089-233.429-239.895-7.641-8.173-17.983-12.317-28.398-12.317-9.123 0-18.284 3.196-25.659 9.696-15.623 13.723-17.678 37.284-4.677 53.478 54.662 68.195 181.166 212.151 211.69 250.126 23.15 25.050 44.971 60.215 77.852 63.864l143.951 23.075c-0.364 2.462 0.004 5.001 1.262 7.216 1.901 3.383 5.36 5.555 9.199 5.821l18.145 1.166c-4.236 6.349-11.324 10.157-18.91 10.157zM633.315 355.335l211.464-405.671-55.004 0.266-211.464 401.87 55.004 3.535zM633.353 378.143c-0.494 0-0.988 0-1.482-0.038l-55.004-3.535c-7.717-0.494-14.635-4.866-18.436-11.594-3.763-6.728-3.877-14.939-0.304-21.781l211.464-401.87c3.915-7.45 11.632-12.164 20.071-12.202l55.004-0.266c0.038 0 0.076 0 0.114 0 7.945 0 15.319 4.143 19.462 10.948 4.143 6.842 4.447 15.319 0.76 22.427l-211.464 405.671c-3.915 7.565-11.746 12.24-20.185 12.24zM944.451 884.357c-23.302 0-46.148-7.909-71.882-24.938-31.551-20.831-55.273-51.77-74.659-97.385-0.076-0.152-0.109-0.264-0.186-0.416-11.1-27.559-12.813-34.748-17.64-62.84-0.114-0.684-0.191-1.365-0.267-2.049-0.266-3.345-1.327-20.412 3.653-31.093l0.149-0.386c1.673-4.067 6.081-14.896 19.994-20.484 15.851-6.386 27.564-8.635 44.784-8.635 1.559 0 3.152 0.006 4.863 0.045 0.152-0.418 0.264-0.878 0.416-1.448-0.38-2.167-4.445-6.73-7.068-7.833-89.558-25.088-128.030-93.774-153.498-139.199-5.323-9.512-10.135-18.015-14.737-25.131 1.485 1.296 3.135 2.405 4.93 3.274l32.675 15.977c25.103 44.63 59.467 101.505 136.979 123.148 10.53 2.927 26.459 18.396 23.038 34.286-2.243 10.491-8.669 19.771-19.236 19.771h-0.572c-2.813-0.076-5.355-0.119-7.788-0.119-13.494 0-22.241 1.33-36.268 6.994-5.892 2.357-6.727 6.695-7.981 9.318s-2.28 11.022-1.596 19.689c4.562 26.799 6.002 32.58 16.304 58.162 19.462 45.767 41.281 70.813 66.255 87.31 18.17 12.012 37.828 21.174 59.343 21.174 9.503 0 19.346-1.79 29.571-5.895 47.592-19.12 87.813-61.085 67.628-111.261-6.044-15.015-17.448-31.51-34.516-47.286-16.574-15.281-39.079-30.905-51.243-59.224-5.968-14.347-10.784-30.017-13.215-45.214l26.134 12.777c2.092 7.657 4.768 15.577 8.063 23.543 7.907 18.284 22.013 30.563 35.622 42.423 3.345 2.927 6.798 5.928 10.067 8.931 18.626 17.182 32.539 36.376 40.218 55.534 12.126 30.144 8.252 61.697-10.906 88.914-15.281 21.705-39.913 40.178-69.373 52-12.43 5.018-25.24 7.565-38.050 7.565zM969.582 500.756l-28.821-13.698c-37.098-102.106-102.824-187.078-176.87-290.841-2.661-3.763-12.735-17.64-14.559-20.187l-98.009 175.281c-0.516-0.034-1.029-0.082-1.544-0.082-0.502 0-1.001 0.041-1.5 0.074l103.213-197.992c6.529 0.613 12.546 3.993 16.423 9.414 0.722 1.026 2.817 3.917 5.212 7.224 3.573 4.904 7.795 10.757 9.392 13 8.401 11.746 16.647 23.262 24.82 34.59 69.488 96.616 129.519 180.136 162.244 283.216zM1100.225 644.307l3.497-54.548-453.947-215.684c13.875 25.164 28.586 48.998 43.562 71.274l406.887 198.958zM1100.225 667.115c-3.421 0-6.842-0.76-10.035-2.319l-406.887-198.958c-3.611-1.749-6.652-4.447-8.895-7.755-16.079-23.91-31.094-48.466-44.627-73.022-4.79-8.667-3.421-19.424 3.383-26.647 4.409-4.676 10.453-7.184 16.612-7.184 3.307 0 6.652 0.722 9.769 2.205l453.985 215.722c8.439 3.991 13.571 12.734 12.962 22.085l-3.497 54.548c-0.494 7.603-4.714 14.445-11.328 18.246-3.497 2.053-7.45 3.079-11.442 3.079zM57.806 810.27c-5.616 0.877-11.488 0.667-17.314-0.802l-7.447-1.864c-23.313-5.879-37.601-29.847-31.724-53.151l72.64-288.131c5.879-23.313 29.847-37.601 53.151-31.724l7.454 1.864c23.313 5.879 37.601 29.847 31.724 53.151l-72.647 288.131c-4.41 17.485-18.989 29.894-35.837 32.526zM54.443 787.789c8.087-1.207 14.943-7.105 17.091-15.621l72.64-288.139c2.864-11.356-3.82-22.578-15.161-25.451h-0.015c-0.003-0.001-0.004-0.008-0.008-0.008l-7.454-1.864c-11.364-2.865-22.594 3.836-25.458 15.191l-72.64 288.131c-2.866 11.364 3.828 22.595 15.183 25.458h-0.022l7.476 1.864c2.841 0.716 5.671 0.84 8.367 0.438zM265.125 874.436l-3.079-13.837-27.559-124.225 157.638 72.034-111.833-123.579 260.539 6.044-256.281-62.341 204.432-92.827-218.307 39.305 80.739-101.494-121.564 84.692c-23.036 16.041-39.343 40.027-45.805 67.358l-10.187 43.030c-7.146 30.22-1.635 62.075 15.205 88.151l76.063 117.687zM540.831 690.873v0zM265.125 897.244c-7.565 0-14.863-3.763-19.158-10.415l-76.025-117.649c-20.109-31.132-26.761-69.677-18.246-105.789l10.187-43.030c7.755-32.843 27.293-61.542 54.966-80.853l121.564-84.692c3.953-2.737 8.515-4.105 13.038-4.105 6.12 0 12.202 2.471 16.65 7.184 7.755 8.249 8.249 20.945 1.216 29.802l-12.24 15.357-30.828 38.735 158.703-28.586c1.368-0.228 2.737-0.38 4.067-0.38 9.807 0 18.74 6.348 21.743 16.003 3.421 10.986-1.863 22.808-12.354 27.559l-144.296 65.496 191.622 46.603c2.851 0.646 5.55 1.787 7.907 3.421 0.532 0.342 1.026 0.722 1.482 1.102 5.17 4.181 8.515 10.568 8.515 17.752 0 12.506-10.073 22.694-22.58 22.808-0.076 0-0.152 0-0.228 0-0.114 0-0.228 0-0.342 0-0.076 0-0.19 0-0.266 0l-207.435-4.828 76.253 84.312c7.26 8.021 7.869 20.033 1.482 28.776-4.409 6.006-11.328 9.351-18.398 9.351-3.193 0-6.424-0.684-9.465-2.053l-115.977-52.99 17.638 79.484 3.079 13.837c2.395 10.796-3.269 21.705-13.456 26.001-2.889 1.216-5.854 1.787-8.819 1.787zM552.134 825.564c-0.011-0.002-0.027-0.005-0.038-0.008l-60.857-14.745c-0.019-0.005-0.034-0.010-0.052-0.015-2.313-0.597-4.283-2.248-5.204-4.551-0.905-2.263-0.68-4.889 0.713-6.979l-0.038 0.045 19.162-29.683c0.015-0.027 0.034-0.055 0.052-0.082 1.248-1.835 3.289-3.13 5.628-3.356 0.121-0.011 0.243-0.016 0.364-0.015h0.341c2.153 0 4.062 0.848 5.501 2.368 0.003 0.003 0.004 0.005 0.008 0.008l41.658 44.36c2.386 2.463 2.763 6.186 1.091 9.073-1.687 2.914-5.091 4.332-8.33 3.579zM530.93 804.828l-17.596-18.746-8.070 12.517zM358.729 890c-1.618 0.15-3.285-0.214-4.744-1.136l-44.36-28.012c-2.065-1.3-3.359-3.53-3.512-5.939-0.155-2.397 0.825-4.688 2.621-6.259 0.015-0.013 0.030-0.025 0.045-0.037l20.603-17.447c0.003-0.003 0.005-0.005 0.008-0.008 1.401-1.18 3.167-1.812 4.922-1.812 0.65 0 1.048 0.084 1.344 0.134 0.050 0.006 0.099 0.014 0.148 0.022 2.217 0.459 4.136 1.861 5.219 3.942l23.758 45.459c1.595 3.046 0.892 6.786-1.567 9.095-0.015 0.015-0.030 0.030-0.045 0.045-1.257 1.142-2.822 1.803-4.44 1.953zM340.725 864.2l-8.657-15.406-5.821 4.922z" />
<glyph unicode="&#xf060;" glyph-name="arrow-left1" horiz-adv-x="914" d="M877.714 438.857v-73.143c0-38.857-25.714-73.143-66.857-73.143h-402.286l167.429-168c13.714-13.143 21.714-32 21.714-51.429s-8-38.286-21.714-51.429l-42.857-43.429c-13.143-13.143-32-21.143-51.429-21.143s-38.286 8-52 21.143l-372 372.571c-13.143 13.143-21.143 32-21.143 51.429s8 38.286 21.143 52l372 371.429c13.714 13.714 32.571 21.714 52 21.714s37.714-8 51.429-21.714l42.857-42.286c13.714-13.714 21.714-32.571 21.714-52s-8-38.286-21.714-52l-167.429-167.429h402.286c41.143 0 66.857-34.286 66.857-73.143z" />
<glyph unicode="&#xf061;" glyph-name="arrow-right1" horiz-adv-x="841" d="M841.143 402.286c0-19.429-7.429-38.286-21.143-52l-372-372c-13.714-13.143-32.571-21.143-52-21.143s-37.714 8-51.429 21.143l-42.857 42.857c-13.714 13.714-21.714 32.571-21.714 52s8 38.286 21.714 52l167.429 167.429h-402.286c-41.143 0-66.857 34.286-66.857 73.143v73.143c0 38.857 25.714 73.143 66.857 73.143h402.286l-167.429 168c-13.714 13.143-21.714 32-21.714 51.429s8 38.286 21.714 51.429l42.857 42.857c13.714 13.714 32 21.714 51.429 21.714s38.286-8 52-21.714l372-372c13.714-13.143 21.143-32 21.143-51.429z" />
</font>
</defs>
</svg>
